<mxfile host="app.diagrams.net" modified="2024-04-14T03:42:51.265Z" agent="Mozilla/5.0 (Macintosh; Intel Mac OS X 10_15_7) AppleWebKit/537.36 (KHTML, like Gecko) Chrome/123.0.0.0 Safari/537.36" etag="jspiW7c_SMkK1f4I3YYd" version="24.2.2" type="device">
  <diagram id="nri3VTkQpvAMr7iWC0OG" name="第 1 页">
    <mxGraphModel dx="892" dy="553" grid="1" gridSize="10" guides="1" tooltips="1" connect="1" arrows="1" fold="1" page="1" pageScale="1" pageWidth="827" pageHeight="1169" math="0" shadow="0">
      <root>
        <mxCell id="0" />
        <mxCell id="1" parent="0" />
        <mxCell id="o4duncfhOpYMJ8ZrN6cX-1" value="" style="rounded=1;whiteSpace=wrap;html=1;" vertex="1" parent="1">
          <mxGeometry x="90" y="110" width="380" height="80" as="geometry" />
        </mxCell>
        <mxCell id="o4duncfhOpYMJ8ZrN6cX-8" value="" style="rounded=0;whiteSpace=wrap;html=1;dashed=1;" vertex="1" parent="1">
          <mxGeometry x="110" y="120" width="340" height="60" as="geometry" />
        </mxCell>
        <mxCell id="o4duncfhOpYMJ8ZrN6cX-6" value="" style="rounded=0;whiteSpace=wrap;html=1;" vertex="1" parent="1">
          <mxGeometry x="200" y="125" width="110" height="50" as="geometry" />
        </mxCell>
        <mxCell id="o4duncfhOpYMJ8ZrN6cX-4" value="提交" style="text;html=1;align=center;verticalAlign=middle;whiteSpace=wrap;rounded=0;" vertex="1" parent="1">
          <mxGeometry x="240" y="135" width="60" height="30" as="geometry" />
        </mxCell>
        <mxCell id="o4duncfhOpYMJ8ZrN6cX-7" value="i" style="ellipse;whiteSpace=wrap;html=1;aspect=fixed;" vertex="1" parent="1">
          <mxGeometry x="210" y="135" width="30" height="30" as="geometry" />
        </mxCell>
        <mxCell id="o4duncfhOpYMJ8ZrN6cX-9" value="注意。。。" style="text;html=1;align=center;verticalAlign=middle;whiteSpace=wrap;rounded=0;fontColor=#CCCCCC;" vertex="1" parent="1">
          <mxGeometry x="370" y="135" width="60" height="30" as="geometry" />
        </mxCell>
        <mxCell id="o4duncfhOpYMJ8ZrN6cX-10" value="cell" style="text;html=1;align=center;verticalAlign=middle;resizable=0;points=[];autosize=1;strokeColor=none;fillColor=none;" vertex="1" parent="1">
          <mxGeometry x="560" y="168" width="40" height="30" as="geometry" />
        </mxCell>
      </root>
    </mxGraphModel>
  </diagram>
</mxfile>
